<svg xmlns="http://www.w3.org/2000/svg" viewBox="0 0 1243.03 1318.37"><defs><style>.cls-1{fill:#009898;}.cls-2{fill:#ca2026;}</style></defs><g id="Layer_2" data-name="Layer 2"><g id="Layer_1-2" data-name="Layer 1"><path class="cls-1" d="M894.35,629.15l-25.21,14.4,5.78-46.13c0-.45,3-46,25.62-47.92l2,.15A109.14,109.14,0,0,0,900,569.81Z"/><path class="cls-1" d="M935.66,607.93a49.07,49.07,0,0,0-14.62,6l-2,1.17-5.58,3.19-5.63,3.23-1.95,1.06,3.36-35.06,1.59-17a111.32,111.32,0,0,1,4.13-25.24c.56-1.79,1.18-3.59,1.84-5.31,3.38-8.75,8.7-16.36,16.93-17.94Z"/><path class="cls-1" d="M863.38,866.67a5,5,0,0,0-1,3l-2.34,25.93H740.4l-2.54-67.63a2,2,0,0,0,0-.61c-13.38-97.5,68.83-135.93,72.8-137.78l12.29-7,1.3-.71a5.54,5.54,0,0,0,1.21-.5l30.14-16.83,5.86-3.26,5.92-3.31L893,643.54l5.74-3.22,5.75-3.22,2.78-1.51,5.56-3.13,5.63-3.12,10.3-5.76a36.65,36.65,0,0,1,7.21-3.47,29.73,29.73,0,0,1,5.41-1.5,23.6,23.6,0,0,1,2.8-.41,19.8,19.8,0,0,1,5.42.21,12.17,12.17,0,0,1,1.45.24,15.07,15.07,0,0,1,4,1.39,3.19,3.19,0,0,1,.62.3,22.75,22.75,0,0,1,8.73,8.55,10.45,10.45,0,0,1,.73,2c1,4,1.62,13.45-10.45,24.43a61.13,61.13,0,0,1-5.52,4.45c-1.46,1.08-3.08,2.13-4.81,3.23a2.06,2.06,0,0,0-.43.33l-.25.19-8.23,6.35-1.11.91-5.55,4.28-6.71,5.18-5.86,4.58-5.68,4.38-5.62,4.39-5.38,4.19L884,709.8,845.13,740l-19,14.69-1,.75L822,757.87a5.48,5.48,0,0,0-1,7.67,5.45,5.45,0,0,0,7.68.94l.25-.19,11.42-8.86,62.51-48.5,6.47-5,.61-.52,5.67-4.38,23.27-18,6.72-5.24,3.41-2.63,1.35-1q2.24-1.37,4.14-2.76c31.72-22.24,19.59-45.39,19.27-45.93-.49-.83-1-1.62-1.61-2.41a35.54,35.54,0,0,0-5.37-6.08,28.8,28.8,0,0,0-11.65-6.44,10.14,10.14,0,0,0-1.8-.51c-.53-.12-1.13-.2-1.67-.27a8.1,8.1,0,0,0-1-.18,2.07,2.07,0,0,0-1-.18,22.25,22.25,0,0,0-3.24-.41L945,539.51l-.37-17.19-.17-5.52-.07-4.51a4.86,4.86,0,0,1,0-.94c-.16-18,3.92-30,12.18-35.74l.7-.46c10.35-6.51,24,0,26,12l19.29,116a92.18,92.18,0,0,1-11.22,61.4L925.81,777.45Z"/><path class="cls-1" d="M348.68,629.15l25.21,14.4-5.78-46.13c0-.45-3-46-25.62-47.92l-2,.15a110.14,110.14,0,0,1,2.59,20.16Z"/><path class="cls-1" d="M307.37,607.93a48.8,48.8,0,0,1,14.61,6l2,1.17,5.58,3.19,5.64,3.23,1.95,1.06-3.36-35.06-1.59-17a111.65,111.65,0,0,0-4.14-25.24c-.55-1.79-1.17-3.59-1.83-5.31-3.38-8.75-8.7-16.36-16.93-17.94Z"/><path class="cls-1" d="M379.65,866.67a5.09,5.09,0,0,1,1,3L383,895.55H502.63l2.54-67.63a2,2,0,0,1,0-.61c13.38-97.5-68.83-135.93-72.8-137.78l-12.29-7-1.3-.71a5.61,5.61,0,0,1-1.22-.5l-30.13-16.83-5.86-3.26-5.92-3.31L350,643.54l-5.75-3.22-5.74-3.22-2.78-1.51-5.57-3.13-5.62-3.12-10.31-5.76a36.37,36.37,0,0,0-7.2-3.47,30,30,0,0,0-5.41-1.5,23.6,23.6,0,0,0-2.8-.41,19.8,19.8,0,0,0-5.42.21,12.17,12.17,0,0,0-1.45.24,15.07,15.07,0,0,0-4,1.39,2.72,2.72,0,0,0-.62.3,22.68,22.68,0,0,0-8.73,8.55,10.45,10.45,0,0,0-.73,2c-1,4-1.62,13.45,10.45,24.43a61.13,61.13,0,0,0,5.52,4.45c1.46,1.08,3.07,2.13,4.81,3.23a2.06,2.06,0,0,1,.43.33l.24.19,8.24,6.35,1.11.91,5.55,4.28,6.71,5.18,5.86,4.58,5.68,4.38,5.62,4.39,5.37,4.19,15.56,12L397.9,740l19,14.69,1,.75,3.12,2.46a5.49,5.49,0,0,1,1,7.67,5.57,5.57,0,0,1-3.64,2.07,5.52,5.52,0,0,1-4-1.13l-.25-.19-11.42-8.86-62.51-48.5-6.47-5-.62-.52L327.4,699l-23.26-18-6.72-5.24L294,673.12l-1.34-1q-2.24-1.37-4.15-2.76c-31.71-22.24-19.58-45.39-19.27-45.93.5-.83,1.06-1.62,1.62-2.41a35.54,35.54,0,0,1,5.37-6.08,28.8,28.8,0,0,1,11.65-6.44,10.14,10.14,0,0,1,1.8-.51c.53-.12,1.13-.2,1.67-.27a8.1,8.1,0,0,1,1-.18,2,2,0,0,1,1-.18,22.08,22.08,0,0,1,3.24-.41l1.49-67.4.37-17.19.17-5.52.07-4.51a4.86,4.86,0,0,0,0-.94c.15-18-3.92-30-12.18-35.74l-.7-.46c-10.36-6.51-24,0-26,12l-19.29,116a92.12,92.12,0,0,0,11.22,61.4l65.59,112.89Z"/><path class="cls-1" d="M910.58,463.7c0,14.49-11.25,28.37-28.23,28.37a28.15,28.15,0,0,1-19.92-8.24L850.3,471.69l-39.85-39.83-179-179a14.09,14.09,0,0,0-19.92,0l-179,179L392.73,471.7,380.6,483.83a28.18,28.18,0,0,1-19.93,8.24c-25.09,0-37.67-30.34-19.92-48.09l12.14-12.12L392.73,392,601.59,183.15a28.16,28.16,0,0,1,39.84,0L772.06,313.77V256.83a14.08,14.08,0,0,1,14.09-14.08h28.17a14.08,14.08,0,0,1,14.09,14.08V370.12L850.3,392l39.84,39.84L902.27,444A27.6,27.6,0,0,1,910.58,463.7Z"/><path class="cls-2" d="M628.56,353.32H614.47a14.09,14.09,0,0,0-14.09,14.09v46.94H553.45a14.09,14.09,0,0,0-14.09,14.09v14.08a14.09,14.09,0,0,0,14.09,14.09h46.93v46.94a14.08,14.08,0,0,0,14.09,14.08h14.09a14.08,14.08,0,0,0,14.08-14.08V456.61h46.94a14.09,14.09,0,0,0,14.09-14.09V428.44a14.09,14.09,0,0,0-14.09-14.09H642.64V367.41A14.08,14.08,0,0,0,628.56,353.32Z"/><path class="cls-2" d="M631.48,610.83a14.1,14.1,0,0,1-19.93,0l-159-159.05-39.84,39.84h0l198.9,198.9a14.1,14.1,0,0,0,19.93,0l198.9-198.9-39.84-39.84Z"/><path class="cls-2" d="M1003.59,216.58c-.07-1.79-.16-3.59-.26-5.37,0-.12,0-.24,0-.35q-.25-4-.64-8l-.06-.56c-.16-1.66-.34-3.32-.55-5l-.09-.69c-.08-.63-.16-1.26-.25-1.89q-.88-6.63-2.17-13.16-1.47-7.47-3.44-14.83c-.25-.9-.49-1.8-.75-2.71-.15-.56-.32-1.12-.48-1.68-.32-1.12-.66-2.24-1-3.36-.52-1.67-1-3.35-1.61-5-.37-1.11-.75-2.22-1.14-3.32-.7-2-1.42-4-2.18-5.95-.25-.66-.51-1.31-.77-2-.68-1.75-1.4-3.49-2.13-5.23A225.5,225.5,0,0,0,693.31,16.67c-1,.42-2,.84-3,1.28l-1.51.65c-1,.45-2,.89-3,1.35-1.51.68-3,1.39-4.51,2.1s-3,1.46-4.48,2.22q-4.35,2.2-8.6,4.6-1.7,1-3.39,1.95l-1.68,1h0c-1,.6-2,1.2-3,1.81h0c-1,.61-2,1.23-2.94,1.85-1.47.94-2.91,1.9-4.36,2.87l-2.86,2c-1,.66-1.9,1.33-2.84,2h0c-1,.68-1.87,1.37-2.8,2.06h0c-1.86,1.38-3.7,2.8-5.51,4.23h0Q636,50.8,633.39,53l-2.65,2.26a14,14,0,0,1-18.46,0Q609.66,53,607,50.8c-.9-.73-1.8-1.46-2.71-2.18l-2.51-2c-.85-.65-1.69-1.29-2.55-1.93l-.92-.68c-.62-.47-1.26-.93-1.89-1.39l-.92-.66c-.78-.57-1.58-1.13-2.37-1.68l-2.87-2q-2.16-1.45-4.36-2.87l-2.93-1.85-3-1.81-1.68-1q-1.68-1-3.39-1.95-4.25-2.39-8.6-4.6c-1.48-.76-3-1.49-4.48-2.22s-3-1.42-4.51-2.1c-1-.46-2-.9-3-1.35L552.76,18c-1-.44-2-.86-3-1.28A225.18,225.18,0,0,0,239.28,225.23a224.59,224.59,0,0,0,50.43,142q.9,1.13,1.83,2.22c1.07,1.28,2.16,2.56,3.26,3.82s2.33,2.64,3.52,3.94l.42.45L333,411.93h0l39.84-39.84-33.33-33.33a168.42,168.42,0,0,1-43.85-113.53c0-93.12,75.76-168.88,168.88-168.88a167.42,167.42,0,0,1,120,50c.58.58,1.15,1.17,1.72,1.76.85.89,1.69,1.79,2.52,2.69s1.66,1.83,2.48,2.76c1.35,1.55,2.69,3.12,4,4.73s2.61,3.23,3.86,4.89l11.22,14.76a14.07,14.07,0,0,0,22.43,0L644,123.18a168.77,168.77,0,0,1,253.93-17.31c.71.71,1.42,1.43,2.13,2.17s1.41,1.46,2.09,2.2c.47.5.92,1,1.38,1.5s.91,1,1.36,1.51q2,2.27,3.95,4.61c.86,1,1.71,2.1,2.55,3.17s1.66,2.13,2.47,3.22c1,1.3,1.93,2.63,2.88,4,.62.88,1.22,1.77,1.83,2.66a168.76,168.76,0,0,1-15,207.92l-33.3,33.3,39.84,39.84,33.76-33.76.86-.89a224.64,224.64,0,0,0,59.07-152C1003.75,222.34,1003.69,219.46,1003.59,216.58Z"/><path class="cls-1" d="M77.14,1181l-16.08.58L14.81,1304.91,0,1308.29v8.34H47.68v-8.34l-18.14-3.38,9.55-26.47h55.3l8.75,26.42-17.85,3.43v8.34h50.39v-8.34L120.82,1305Zm-9.07,15.23,22.74,70.63H43Z"/><path class="cls-1" d="M184.14,1305.19a27.44,27.44,0,0,1-7.56,1.17q-5.82,0-9-3.69t-3.2-11.82v-65.71h27.72l.58-10.85h-28.3V1188.7l-15.51,2.52v22.88l-17.44,2.51v8.53h17.44V1293q0,12.8,5.82,19.09t15.89,6.3q11.82,0,25.59-7.56l-3.3-8.91A61.49,61.49,0,0,1,184.14,1305.19Z"/><polygon class="cls-1" points="307.61 1267.67 346.1 1193.05 361.5 1189.67 361.5 1181.34 313.81 1182.3 313.81 1190.64 331.94 1193.52 300.94 1254.99 270.31 1193.02 288.23 1189.67 288.23 1181.34 238.61 1182.3 238.61 1190.64 253.83 1193.48 291.72 1266.92 291.72 1304.78 274.66 1308.29 274.66 1316.63 324.67 1316.63 324.67 1308.29 307.61 1304.78 307.61 1267.67"/><path class="cls-1" d="M401.62,1212.54q-14.94,0-25.69,6.69a43.14,43.14,0,0,0-16.47,19q-5.71,12.32-5.72,29.37,0,24.62,11.82,37.7t32.76,13.08q15.31,0,26.17-6.78a44.8,44.8,0,0,0,16.76-19.09q5.92-12.32,5.92-28.79,0-24.42-12.12-37.79T401.62,1212.54Zm25.68,74.63a31.06,31.06,0,0,1-10.66,14.63q-7.08,5.15-17.35,5.14-14.15,0-21.71-10.08t-7.56-30q0-20.34,8-31.59T400.84,1224q14.34,0,22.19,10.37t7.85,30.14Q430.88,1277.68,427.3,1287.17Z"/><path class="cls-1" d="M556.29,1213.51l-30.82,1.36v8.33l15.32,3.27v64.94a57.05,57.05,0,0,1-15.32,10.87,36.88,36.88,0,0,1-15.5,3.88q-9.12,0-14.54-5.62T490,1283.29V1213.7l-30.82,1.17v8.33l15.32,3.27V1286q0,16.49,8.33,24.43t21.13,7.94a49.84,49.84,0,0,0,20.06-4.65A62.11,62.11,0,0,0,542.26,1301l2,16.59,27.13-1.17v-8.52l-15.12-2.86Z"/><path class="cls-1" d="M627.82,1217.58a82,82,0,0,0-15.23,12.28l-1.83-16.35-27.14,1.36v8.33l15.12,3.23V1305l-15.12,3.26v8.34h49.43v-8.34l-18.8-3.27v-64.89a65.89,65.89,0,0,1,12.31-10.34,27.49,27.49,0,0,1,15-4.65,27,27,0,0,1,3.1.19c.52.07,1,.15,1.52.25l2,17.2h9.69l1.16-28.3a47.31,47.31,0,0,0-13-1.94A34.54,34.54,0,0,0,627.82,1217.58Z"/><polygon class="cls-1" points="796.25 1190.64 812.92 1193.61 812.92 1241.81 742.75 1241.81 742.75 1193.51 759.62 1189.67 759.62 1181.34 710.19 1182.3 710.19 1190.64 726.86 1193.58 726.86 1304.76 710.19 1308.29 710.19 1316.63 759.62 1316.63 759.62 1308.29 742.75 1304.75 742.75 1253.63 812.92 1253.63 812.92 1304.76 796.25 1308.29 796.25 1316.63 845.68 1316.63 845.68 1308.29 828.81 1304.75 828.81 1193.55 845.68 1189.67 845.68 1181.34 796.25 1182.3 796.25 1190.64"/><path class="cls-1" d="M907.12,1212.54q-14.93,0-25.68,6.69a43.16,43.16,0,0,0-16.48,19q-5.72,12.32-5.72,29.37,0,24.62,11.83,37.7t32.76,13.08q15.3,0,26.16-6.78a44.76,44.76,0,0,0,16.77-19.09q5.91-12.32,5.91-28.79,0-24.42-12.11-37.79T907.12,1212.54Zm25.68,74.63a31,31,0,0,1-10.66,14.63q-7.08,5.15-17.34,5.14-14.16,0-21.71-10.08t-7.56-30q0-20.34,7.94-31.59T906.35,1224q14.34,0,22.19,10.37t7.85,30.14Q936.39,1277.68,932.8,1287.17Z"/><path class="cls-1" d="M1128.09,1244.52q0-16.27-8-24.13a27.33,27.33,0,0,0-19.86-7.85q-9.32,0-20,4.94a66.14,66.14,0,0,0-18.47,13.13q-3.13-8.89-9.63-13.32a27.67,27.67,0,0,0-15.9-4.75,49.84,49.84,0,0,0-20.06,4.65,62,62,0,0,0-18.22,12.69l-1.84-16.37L969,1214.87v8.33l15.12,3.19v78.54L969,1308.29v8.34h44.78v-8.34l-14.15-3.06v-65.91a57,57,0,0,1,15.12-10.69q8.32-3.87,15.31-3.88a17.2,17.2,0,0,1,13.28,5.62q5.13,5.63,5.13,17.64v57.12l-14.15,3.16v8.34h43.81v-8.34l-14.15-3.24v-61.11c0-1,0-2.06-.1-3.1,0-.37,0-.77-.09-1.16a58.25,58.25,0,0,1,15-10.86q8.43-4.07,15.41-4.07a17.18,17.18,0,0,1,13.27,5.62q5.14,5.63,5.14,17.64v57.08l-14.34,3.2v8.34h45v-8.34l-15.12-3.26Z"/><path class="cls-1" d="M1242.83,1261.39c.13-1.42.2-2.84.2-4.27a57.72,57.72,0,0,0-4.36-23.06,34.88,34.88,0,0,0-13.18-15.8q-8.84-5.71-22.39-5.72-14.36,0-25,6.69a44.13,44.13,0,0,0-16.47,18.9q-5.82,12.21-5.82,29.07,0,16.48,5.63,27.91a40,40,0,0,0,15.6,17.35,44.21,44.21,0,0,0,23,5.91,65.17,65.17,0,0,0,20.93-3.68,90.53,90.53,0,0,0,21.71-11l-5.62-8.72a78.74,78.74,0,0,1-17.64,8.62,50.35,50.35,0,0,1-15.7,2.82q-10.28,0-17.35-5a31.17,31.17,0,0,1-10.76-14.25,57.9,57.9,0,0,1-3.65-20.45h70.33C1242.51,1264.55,1242.7,1262.81,1242.83,1261.39Zm-57.56-31.79q6.78-5.24,16.67-5.23,9.3,0,14.92,4.45a23.87,23.87,0,0,1,8,11.83,48.93,48.93,0,0,1,2.13,14.92h-54.47a54.26,54.26,0,0,1,2.72-11.63A30.75,30.75,0,0,1,1185.27,1229.6Z"/><polygon class="cls-2" points="99.79 977.9 117.81 982.36 117.81 1031.72 46.43 1031.72 46.43 982.13 64.45 976.75 64.45 962.42 0 963.58 0 977.9 18.02 982.27 18.02 1105.52 0 1110.26 0 1124.58 64.45 1124.58 64.45 1110.26 46.43 1105.47 46.43 1052.28 117.81 1052.28 117.81 1105.47 99.79 1110.26 99.79 1124.58 164.01 1124.58 164.01 1110.26 145.99 1105.52 145.99 982.25 164.01 976.75 164.01 962.42 99.79 963.58 99.79 977.9"/><path class="cls-2" d="M254.24,1006.2q-11-7.05-28.3-7.05-18,0-31.41,8a53,53,0,0,0-20.68,22.76q-7.28,14.77-7.27,35.34,0,20.1,6.93,33.84a48.62,48.62,0,0,0,19.4,20.9q12.48,7.17,28.64,7.17a86.19,86.19,0,0,0,26.68-4.39,100.68,100.68,0,0,0,26.68-13.63l-9.47-15a105.91,105.91,0,0,1-19.63,9.24,54.56,54.56,0,0,1-17.56,3.24q-11.33,0-18.71-5.89a34,34,0,0,1-10.86-15.94,65.8,65.8,0,0,1-3.25-17h79.25q.46-4.15.81-7.62t.35-6.7q0-15.7-5.32-28A42.5,42.5,0,0,0,254.24,1006.2Zm-46.89,18.94q6.12-5.66,16.28-5.66,9,0,14.21,4.39a23.94,23.94,0,0,1,7.39,11.78,52,52,0,0,1,2,14.55H196a60.61,60.61,0,0,1,2.25-10A34.15,34.15,0,0,1,207.35,1025.14Z"/><path class="cls-2" d="M383.33,1035.88q0-18.93-11.09-27.83t-31.65-8.9a133.2,133.2,0,0,0-22.87,2.2,247.25,247.25,0,0,0-27.25,6.58l1.85,32.34h17.55l2.41-17.08a86.83,86.83,0,0,1,10-2.44,64.85,64.85,0,0,1,11.2-1q10.62,0,16.4,4.85t5.78,16.17V1056H330.89q-14.55,0-25.18,3.35t-16.4,11q-5.78,7.62-5.77,20.79,0,17.57,9.7,26.8a32.91,32.91,0,0,0,23.56,9.24,50.33,50.33,0,0,0,22.52-5.55,65.19,65.19,0,0,0,19.06-14.79l3.23,19.41,38.12-1.85V1109.8l-16.4-4.29Zm-41.58,66.76q-7.86,4.15-14.55,4.16a15.3,15.3,0,0,1-11.32-4.39q-4.39-4.38-4.39-13.63,0-8.55,5.2-12.59t18.82-4h20.1v20.66A69.59,69.59,0,0,1,341.75,1102.64Z"/><polygon class="cls-2" points="451.32 945.33 407.43 947.18 407.43 961.5 423.6 965.59 423.6 1106.02 407.43 1110.26 407.43 1124.58 467.72 1124.58 467.72 1110.26 451.32 1106.01 451.32 945.33"/><path class="cls-2" d="M536.56,1105.18a30.06,30.06,0,0,1-8.55,1.39q-6.46,0-9.93-4.39t-3.47-14.32V1020.4h31.88l.46-18.71H514.61V969.58l-27.95,4.86v27.16l-18.94,3.79v15h18.94v71.15q0,17.79,7.86,26.68t22.4,8.9q16.64,0,34.88-10.17l-5.31-15.24Q541.18,1103.79,536.56,1105.18Z"/><path class="cls-2" d="M682.06,1038q0-12.93-4.62-21.6a30.2,30.2,0,0,0-12.82-12.93,39.66,39.66,0,0,0-18.6-4.28,59.64,59.64,0,0,0-23.79,5.43,71,71,0,0,0-17.55,11.17V945.33l-43.89,1.85V961.5L577,965.88v140l-16.17,4.37v14.32h58.9v-14.32l-15-4.09v-72.24a56.78,56.78,0,0,1,14.32-9.71q8.31-3.81,15.24-3.82,9,0,14.67,5.78t5.43,17.79v62.35l-15,3.94v14.32h58.9v-14.32l-16.17-4.53Z"/><path class="cls-2" d="M855.45,1044.2a76,76,0,0,0-16.4-8.78q-8.89-3.47-18-6.35T804.4,1023a37.45,37.45,0,0,1-12.13-8,16.65,16.65,0,0,1-4.62-12.13q0-7.86,4.39-12.71a25.09,25.09,0,0,1,11.78-7,55.07,55.07,0,0,1,15.71-2.2,74.59,74.59,0,0,1,24.41,4.15l4,23.8H865l2.31-39a133.15,133.15,0,0,0-25.07-7.51,127.37,127.37,0,0,0-24.13-2.43,80,80,0,0,0-29.57,5.2,46.4,46.4,0,0,0-20.79,15.48q-7.62,10.28-7.63,26,0,12.48,4.51,20.45a39.25,39.25,0,0,0,12,13.16,74,74,0,0,0,16.52,8.55q9,3.36,18,6a132.91,132.91,0,0,1,16.51,6,35.53,35.53,0,0,1,12,8.32q4.51,5,4.51,12.82a20.1,20.1,0,0,1-4.62,13.51,27.54,27.54,0,0,1-12.36,8.09,52.81,52.81,0,0,1-17.21,2.65,74.58,74.58,0,0,1-15.71-1.73A71.78,71.78,0,0,1,781,1100.1l-3.75-24.49H760.63l-1.16,42a132.37,132.37,0,0,0,24.6,7.28,129.68,129.68,0,0,0,24.6,2.43,91.45,91.45,0,0,0,31.77-5.32,51.59,51.59,0,0,0,23.1-16.17q8.65-10.84,8.66-27.72,0-12.24-4.62-20.44A41,41,0,0,0,855.45,1044.2Z"/><path class="cls-2" d="M970.13,1006.2q-11-7.05-28.3-7.05-18,0-31.41,8a53,53,0,0,0-20.68,22.76q-7.28,14.77-7.27,35.34,0,20.1,6.93,33.84a48.62,48.62,0,0,0,19.4,20.9q12.48,7.17,28.64,7.17a86.19,86.19,0,0,0,26.68-4.39,100.68,100.68,0,0,0,26.68-13.63l-9.47-15a105.91,105.91,0,0,1-19.63,9.24,54.56,54.56,0,0,1-17.56,3.24q-11.31,0-18.71-5.89a34,34,0,0,1-10.86-15.94,65.8,65.8,0,0,1-3.25-17h79.25q.46-4.15.81-7.62t.35-6.7q0-15.7-5.32-28A42.5,42.5,0,0,0,970.13,1006.2Zm-46.89,18.94q6.12-5.66,16.28-5.66,9,0,14.21,4.39a23.87,23.87,0,0,1,7.39,11.78,52,52,0,0,1,2,14.55H911.86a60.61,60.61,0,0,1,2.25-10A34.15,34.15,0,0,1,923.24,1025.14Z"/><polygon class="cls-2" points="1070.88 1016.94 1085.75 1019.55 1058.94 1103.65 1034.98 1018.92 1050.09 1015.09 1050.09 1000.77 995.58 1002.62 995.58 1016.94 1006.83 1019.62 1040.39 1125.05 1072.96 1125.05 1110.58 1019.36 1121.7 1015.09 1121.7 1000.77 1070.88 1002.62 1070.88 1016.94"/><path class="cls-2" d="M1226.63,1105.51v-69.63q0-18.93-11.09-27.83t-31.65-8.9a133.2,133.2,0,0,0-22.87,2.2,247.25,247.25,0,0,0-27.25,6.58l1.84,32.34h17.56l2.41-17.08a86.83,86.83,0,0,1,10-2.44,64.76,64.76,0,0,1,11.2-1q10.62,0,16.4,4.85t5.78,16.17V1056h-24.72q-14.55,0-25.18,3.35t-16.4,11q-5.77,7.62-5.77,20.79,0,17.57,9.7,26.8a32.91,32.91,0,0,0,23.56,9.24,50.33,50.33,0,0,0,22.52-5.55,65.45,65.45,0,0,0,19.06-14.79l3.23,19.41,38.12-1.85V1109.8Zm-41.58-2.87q-7.86,4.15-14.56,4.16a15.27,15.27,0,0,1-11.31-4.39q-4.4-4.38-4.39-13.63,0-8.55,5.19-12.59t18.83-4h20.1v20.66A70,70,0,0,1,1185.05,1102.64Z"/></g></g></svg>